<?xml version="1.0" encoding="UTF-8" standalone="no"?>
<svg
   xmlns:dc="http://purl.org/dc/elements/1.1/"
   xmlns:cc="http://creativecommons.org/ns#"
   xmlns:rdf="http://www.w3.org/1999/02/22-rdf-syntax-ns#"
   xmlns:svg="http://www.w3.org/2000/svg"
   xmlns="http://www.w3.org/2000/svg"
   xmlns:xlink="http://www.w3.org/1999/xlink"
   id="svg2"
   xml:space="preserve"
   style="enable-background:new 0 0 32 32;"
   viewBox="0 0 32 32"
   y="0px"
   x="0px"
   version="1.1"><metadata
     id="metadata18"><rdf:RDF><cc:Work
         rdf:about=""><dc:format>image/svg+xml</dc:format><dc:type
           rdf:resource="http://purl.org/dc/dcmitype/StillImage" /></cc:Work></rdf:RDF></metadata><defs
     id="defs16" /><g
     id="Layer_1"><image
       xlink:href="D:\UX_Drive\multiSelection\Arrow_multiSelect.png"
       style="overflow:visible;"
       width="32"
       height="32"
       id="image5" /></g><g
     id="Layer_2"><polygon
       id="polygon8"
       points="0.5,0.5 0.5,16.5 1.5,16.5    4.641,13.359 7.281,18.5 9.814,17.252 7.406,12.5 11.5,12.5 11.5,11.5  "
       style="fill:#FFFFFF;stroke:#000000;stroke-linejoin:bevel;stroke-miterlimit:10;" /><path
       id="path10"
       d="M15,11.938c-0.553,0-1-0.447-1-1V8h-3c-0.553,0-1-0.448-1-1V5c0-0.552,0.447-1,1-1h3V1   c0-0.552,0.447-1,1-1h2c0.553,0,1,0.448,1,1v3h2.938c0.553,0,1,0.448,1,1v2c0,0.552-0.447,1-1,1H18v2.938c0,0.553-0.447,1-1,1H15z"
       style="fill:#FFFFFF;" /><polygon
       id="polygon12"
       points="20.938,5 17,5 17,1 15,1 15,5 11,5 11,7 15,7 15,10.938 17,10.938 17,7 20.938,7  " /></g></svg>